<?xml version="1.0" encoding="UTF-8" standalone="no"?>
<!DOCTYPE svg PUBLIC "-//W3C//DTD SVG 1.1//EN" "http://www.w3.org/Graphics/SVG/1.1/DTD/svg11.dtd">
<svg xmlns="http://www.w3.org/2000/svg" xmlns:xlink="http://www.w3.org/1999/xlink" version="1.1" width="900pt" height="1200pt" viewBox="0 0 900 1200">
<g enable-background="new">
<g id="Layer-1" data-name="Capa 1">
<clipPath id="cp0">
<path transform="matrix(1,0,0,-1,0,1200)" d="M 0 1200 L 900 1200 L 900 0 L 0 0 Z "/>
</clipPath>
<g clip-path="url(#cp0)">
<path transform="matrix(1,0,0,-1,291.7956,539.7678)" stroke-width="19" stroke-linecap="round" stroke-linejoin="round" fill="none" stroke="#1f7f35" d="M 0 0 C -4.484 -.099 -8.968 -.61 -13.45 -1.535 C -17.935 -2.463 -22.369 -3.753 -26.754 -5.41 C -21.688 -7.847 -16.911 -9.795 -12.427 -11.257 C -7.945 -12.72 -3.655 -13.354 .438 -13.158 C 7.844 -12.866 13.377 -11.989 17.032 -10.526 C 20.687 -9.064 22.464 -7.529 22.368 -5.921 C 22.27 -4.313 20.344 -2.901 16.593 -1.682 C 12.84 -.464 7.31 .096 0 0 Z M 21.053 -87.134 C 16.568 -94.542 11.403 -101.633 5.556 -108.407 C -.292 -115.182 -6.798 -121.103 -13.962 -126.169 C -21.126 -131.236 -28.899 -135.161 -37.281 -137.938 C -45.665 -140.716 -54.63 -141.861 -64.182 -141.375 C -72.661 -140.984 -80.19 -139.302 -86.769 -136.331 C -93.348 -133.356 -98.904 -129.458 -103.436 -124.634 C -107.968 -119.81 -111.381 -114.207 -113.67 -107.822 C -115.961 -101.439 -117.058 -94.59 -116.959 -87.281 C -116.863 -78.705 -115.351 -70.419 -112.427 -62.426 C -109.503 -54.437 -105.533 -46.955 -100.512 -39.985 C -95.493 -33.019 -89.62 -26.585 -82.895 -20.687 C -76.17 -14.792 -69.006 -9.602 -61.404 -5.117 C -66.473 -3.267 -71.542 -1.513 -76.608 .146 C -81.677 1.802 -86.696 3.264 -91.667 4.532 C -96.638 5.797 -101.487 6.773 -106.214 7.456 C -110.942 8.137 -115.497 8.429 -119.883 8.333 C -123.296 8.235 -126.268 7.479 -128.801 6.067 C -131.337 4.653 -133.432 2.972 -135.088 1.023 C -136.747 -.928 -137.989 -2.924 -138.816 -4.971 C -139.645 -7.018 -140.109 -8.676 -140.205 -9.942 C -140.303 -11.696 -140.303 -13.451 -140.205 -15.205 C -140.109 -16.959 -139.744 -18.618 -139.108 -20.176 C -138.476 -21.736 -137.478 -23.1 -136.111 -24.269 C -134.748 -25.439 -132.799 -26.268 -130.263 -26.754 C -129.29 -26.951 -128.194 -27.12 -126.974 -27.266 C -125.756 -27.413 -124.319 -27.365 -122.661 -27.12 C -121.005 -26.878 -119.104 -26.414 -116.959 -25.731 C -114.816 -25.05 -112.427 -23.929 -109.795 -22.369 C -109.017 -21.882 -108.212 -22.053 -107.383 -22.88 C -106.556 -23.709 -105.921 -24.927 -105.482 -26.535 C -105.044 -28.144 -104.898 -30.069 -105.044 -32.31 C -105.19 -34.553 -105.8 -36.794 -106.872 -39.035 C -109.992 -45.664 -114.718 -50.464 -121.053 -53.436 C -127.39 -56.41 -134.553 -57.068 -142.544 -55.409 C -150.439 -53.655 -156.531 -50.878 -160.819 -47.076 C -165.109 -43.275 -168.202 -39.134 -170.103 -34.649 C -172.003 -30.167 -172.979 -25.658 -173.026 -21.126 C -173.077 -16.594 -172.807 -12.72 -172.223 -9.503 C -171.443 -5.41 -169.737 -1.122 -167.105 3.362 C -164.474 7.844 -160.965 11.963 -156.579 15.716 C -152.193 19.467 -146.955 22.515 -140.863 24.854 C -134.772 27.193 -127.828 28.312 -120.029 28.216 C -112.72 28.02 -105.654 27.167 -98.831 25.658 C -92.009 24.146 -85.431 22.222 -79.094 19.883 C -72.759 17.543 -66.692 14.935 -60.892 12.061 C -55.094 9.185 -49.514 6.334 -44.152 3.509 C -36.257 6.919 -28.363 9.503 -20.468 11.257 C -12.573 13.012 -4.971 13.838 2.339 13.743 C 11.792 13.253 19.127 11.499 24.342 8.479 C 29.555 5.457 32.113 1.656 32.018 -2.924 C 32.018 -5.848 31.14 -8.457 29.386 -10.746 C 27.631 -13.037 25.242 -14.963 22.222 -16.521 C 19.2 -18.081 15.666 -19.298 11.623 -20.176 C 7.577 -21.053 3.312 -21.542 -1.17 -21.638 C -6.725 -21.834 -12.938 -21.005 -19.81 -19.152 C -26.682 -17.302 -33.918 -15.011 -41.521 -12.281 C -48.344 -16.278 -54.729 -21.053 -60.673 -26.608 C -66.619 -32.164 -71.736 -38.231 -76.023 -44.811 C -80.313 -51.389 -83.626 -58.384 -85.965 -65.79 C -88.304 -73.198 -89.328 -80.702 -89.035 -88.304 C -88.743 -94.933 -87.5 -100.39 -85.307 -104.678 C -83.114 -108.968 -80.435 -112.378 -77.266 -114.913 C -74.1 -117.448 -70.737 -119.25 -67.179 -120.322 C -63.622 -121.395 -60.333 -121.929 -57.31 -121.929 C -43.373 -122.222 -30.215 -119.152 -17.836 -112.719 C -5.459 -106.287 5.604 -96.736 15.351 -84.064 C 16.032 -83.187 16.788 -82.675 17.617 -82.529 C 18.444 -82.383 19.175 -82.481 19.81 -82.822 C 20.443 -83.165 20.906 -83.724 21.199 -84.502 C 21.491 -85.284 21.441 -86.162 21.053 -87.134 Z "/>
<path transform="matrix(1,0,0,-1,324.3972,648.3932)" stroke-width="19" stroke-linecap="round" stroke-linejoin="round" fill="none" stroke="#1f7f35" d="M 0 0 C .681 0 1.681 .389 2.997 1.17 C 4.313 1.948 5.775 2.997 7.383 4.312 C 8.991 5.629 10.695 7.187 12.5 8.991 C 14.302 10.794 16.082 12.815 17.836 15.059 L 23.977 25.438 C 24.072 25.534 24.146 25.585 24.196 25.585 C 24.244 25.585 24.317 25.681 24.415 25.877 L 23.977 25.438 L 25.146 27.339 C 25.535 28.509 25.877 29.971 26.169 31.726 C 26.462 33.479 26.558 35.209 26.462 36.915 C 26.364 38.619 25.998 40.081 25.365 41.301 C 24.73 42.519 23.732 43.177 22.368 43.274 C 21.295 43.371 19.613 42.836 17.325 41.667 C 15.033 40.497 12.596 38.597 10.015 35.965 C 7.431 33.333 4.897 29.945 2.412 25.804 C -.073 21.66 -2.047 16.616 -3.509 10.673 C -3.801 9.697 -4.021 8.575 -4.167 7.31 C -4.313 6.042 -4.313 4.848 -4.167 3.728 C -4.021 2.606 -3.632 1.682 -2.997 .95 C -2.364 .219 -1.366 -.099 0 0 Z M 10.087 -8.772 C 10.087 -8.188 10.11 -7.603 10.161 -7.018 C 10.208 -6.433 10.282 -5.8 10.38 -5.117 C 8.82 -6.775 7.285 -8.358 5.775 -9.868 C 4.263 -11.381 2.68 -12.696 1.023 -13.815 C -.635 -14.938 -2.364 -15.814 -4.167 -16.447 C -5.971 -17.082 -7.895 -17.397 -9.941 -17.397 C -14.133 -17.302 -17.423 -15.767 -19.81 -12.792 C -22.2 -9.82 -23.488 -5.409 -23.684 .438 C -23.78 4.142 -23.293 8.041 -22.222 12.135 C -21.151 16.228 -19.616 20.271 -17.617 24.269 C -15.621 28.265 -13.208 32.091 -10.38 35.745 C -7.555 39.4 -4.437 42.566 -1.023 45.248 C 2.387 47.927 6.017 50.022 9.868 51.535 C 13.717 53.044 17.64 53.703 21.637 53.508 C 22.61 53.508 23.732 53.337 25 52.997 C 26.266 52.654 27.508 52.046 28.728 51.169 C 29.946 50.292 31.017 49.072 31.944 47.514 C 32.87 45.954 33.429 43.907 33.625 41.374 L 38.012 48.83 C 38.596 49.708 39.814 50.219 41.667 50.365 C 43.517 50.511 45.417 50.388 47.368 50 C 49.317 49.609 50.973 48.999 52.339 48.172 C 53.703 47.343 54.189 46.441 53.801 45.468 C 53.604 44.785 52.68 43.177 51.023 40.644 C 49.365 38.107 47.464 35.161 45.322 31.798 C 43.177 28.436 40.983 24.901 38.743 21.199 C 36.5 17.493 34.649 14.083 33.187 10.965 C 31.725 7.845 30.871 5.286 30.628 3.289 C 30.384 1.291 31.188 .34 33.041 .438 C 34.21 .438 35.526 .95 36.988 1.974 C 38.45 2.997 39.935 4.263 41.447 5.774 C 42.958 7.285 44.492 8.966 46.053 10.818 C 47.61 12.669 49.05 14.474 50.365 16.228 C 51.681 17.982 52.874 19.613 53.947 21.126 C 55.019 22.636 55.848 23.78 56.433 24.562 C 57.113 25.438 57.87 25.95 58.699 26.097 C 59.526 26.242 60.257 26.145 60.892 25.804 C 61.524 25.461 61.988 24.901 62.281 24.123 C 62.573 23.342 62.523 22.464 62.134 21.491 C 59.307 16.909 56.287 12.449 53.07 8.114 C 49.854 3.776 46.539 -.244 43.128 -3.947 C 42.153 -4.923 40.885 -6.238 39.328 -7.895 C 37.767 -9.554 36.038 -11.137 34.137 -12.646 C 32.237 -14.158 30.165 -15.449 27.924 -16.521 C 25.681 -17.592 23.44 -18.078 21.199 -17.982 C 17.007 -17.786 14.131 -16.79 12.573 -14.985 C 11.013 -13.183 10.184 -11.111 10.087 -8.772 Z "/>
<path transform="matrix(1,0,0,-1,459.7761,631.2878)" stroke-width="19" stroke-linecap="round" stroke-linejoin="round" fill="none" stroke="#1f7f35" d="M 0 0 C -1.268 -2.243 -2.389 -4.386 -3.361 -6.433 C -4.338 -8.479 -5.068 -10.26 -5.555 -11.77 C -6.043 -13.281 -6.238 -14.474 -6.139 -15.352 C -6.043 -16.229 -5.459 -16.667 -4.385 -16.667 C -2.631 -16.571 -.584 -15.475 1.756 -13.378 C 4.094 -11.282 6.383 -8.896 8.627 -6.214 C 10.867 -3.534 12.939 -.878 14.84 1.754 C 16.74 4.386 18.129 6.286 19.006 7.456 C 19.687 8.333 20.443 8.845 21.273 8.991 C 22.1 9.137 22.83 9.039 23.467 8.698 C 24.1 8.355 24.562 7.796 24.855 7.018 C 25.146 6.236 25.098 5.358 24.709 4.386 C 21.881 -.196 18.861 -4.656 15.645 -8.991 C 12.428 -13.329 9.113 -17.35 5.703 -21.053 C 4.727 -22.028 3.459 -23.344 1.902 -25 C .342 -26.659 -1.389 -28.242 -3.289 -29.752 C -5.189 -31.264 -7.262 -32.555 -9.501 -33.626 C -11.746 -34.697 -13.986 -35.184 -16.226 -35.088 C -18.273 -34.99 -19.98 -34.649 -21.343 -34.064 C -22.71 -33.479 -23.806 -32.749 -24.632 -31.872 C -25.462 -30.994 -26.046 -29.996 -26.388 -28.875 C -26.73 -27.755 -26.949 -26.608 -27.044 -25.438 C -27.242 -24.075 -27.07 -22.394 -26.533 -20.395 C -26 -18.398 -25.316 -16.326 -24.488 -14.182 C -23.66 -12.039 -22.732 -9.941 -21.708 -7.895 C -20.685 -5.849 -19.687 -4.046 -18.712 -2.485 C -17.154 .34 -15.375 3.483 -13.376 6.944 C -11.378 10.402 -9.625 13.645 -8.113 16.666 C -6.604 19.687 -5.58 22.197 -5.043 24.195 C -4.508 26.192 -4.873 27.192 -6.139 27.192 C -7.797 27.192 -9.794 26.218 -12.132 24.269 C -14.472 22.318 -16.884 19.956 -19.371 17.178 C -21.855 14.4 -24.267 11.426 -26.607 8.26 C -28.947 5.092 -30.994 2.289 -32.748 -.146 L -49.56 -31.433 C -50.535 -32.993 -51.292 -33.918 -51.826 -34.211 C -52.363 -34.503 -52.972 -34.649 -53.654 -34.649 C -55.505 -34.745 -57.798 -34.818 -60.525 -34.869 C -63.255 -34.917 -65.448 -34.844 -67.104 -34.649 C -68.178 -34.554 -68.591 -34.188 -68.347 -33.553 C -68.104 -32.92 -67.787 -32.018 -67.396 -30.849 C -66.91 -29.192 -65.667 -26.659 -63.667 -23.246 C -61.671 -19.835 -59.406 -15.986 -56.871 -11.696 C -54.337 -7.408 -51.73 -2.997 -49.048 1.535 C -46.369 6.067 -44.029 10.184 -42.031 13.889 C -40.035 17.592 -38.646 20.662 -37.865 23.1 C -37.085 25.534 -37.33 26.802 -38.595 26.9 C -39.96 26.996 -41.617 26.363 -43.566 25 C -45.517 23.634 -47.539 21.879 -49.632 19.736 C -51.73 17.592 -53.849 15.204 -55.994 12.573 C -58.138 9.941 -60.111 7.405 -61.914 4.971 C -63.718 2.533 -65.301 .315 -66.665 -1.682 C -68.031 -3.681 -68.957 -5.069 -69.443 -5.849 C -69.542 -5.946 -69.589 -6.045 -69.589 -6.141 C -70.466 -7.799 -71.394 -9.602 -72.367 -11.55 C -73.342 -13.501 -74.318 -15.475 -75.291 -17.471 C -76.267 -19.47 -77.217 -21.443 -78.142 -23.393 C -79.069 -25.343 -79.921 -27.098 -80.7 -28.655 C -81.578 -30.508 -82.235 -31.872 -82.674 -32.749 C -83.113 -33.626 -83.576 -34.211 -84.063 -34.503 C -84.552 -34.796 -85.208 -34.917 -86.037 -34.869 C -86.864 -34.818 -88.157 -34.796 -89.911 -34.796 C -91.567 -34.796 -92.883 -34.844 -93.858 -34.941 C -94.832 -35.038 -96.001 -35.038 -97.367 -34.941 C -98.34 -34.941 -98.975 -34.697 -99.268 -34.211 C -99.56 -33.725 -99.681 -33.14 -99.633 -32.456 C -99.583 -31.775 -99.437 -31.141 -99.194 -30.556 C -98.95 -29.971 -98.779 -29.583 -98.683 -29.387 C -95.759 -22.565 -91.519 -13.866 -85.963 -3.29 C -80.408 7.284 -72.758 20.125 -63.011 35.233 C -62.425 36.111 -61.208 36.623 -59.355 36.768 C -57.505 36.915 -55.626 36.792 -53.726 36.403 C -51.826 36.012 -50.169 35.402 -48.755 34.576 C -47.343 33.746 -46.832 32.844 -47.22 31.871 C -47.417 31.286 -48.222 29.872 -49.632 27.631 C -51.046 25.388 -52.728 22.709 -54.677 19.591 L -54.238 20.029 C -53.265 21.002 -52.095 22.368 -50.73 24.123 C -49.367 25.877 -47.806 27.654 -46.05 29.459 C -44.296 31.26 -42.421 32.894 -40.423 34.356 C -38.425 35.818 -36.306 36.695 -34.062 36.988 C -31.628 37.375 -29.603 37.28 -27.996 36.695 C -26.388 36.111 -25.144 35.281 -24.267 34.209 C -23.39 33.136 -22.783 31.918 -22.441 30.555 C -22.099 29.189 -21.929 27.924 -21.929 26.754 C -21.929 26.266 -21.953 25.778 -22.001 25.292 C -22.052 24.804 -22.125 24.316 -22.22 23.83 C -21.15 24.901 -19.833 26.145 -18.273 27.559 C -16.716 28.97 -15.009 30.336 -13.156 31.651 C -11.306 32.967 -9.355 34.136 -7.309 35.16 C -5.262 36.183 -3.168 36.792 -1.021 36.988 C 3.266 37.375 6.627 36.524 9.064 34.429 C 11.5 32.333 12.574 29.774 12.281 26.754 C 12.086 25 11.697 23.221 11.111 21.418 C 10.527 19.613 9.844 17.811 9.064 16.009 C 8.283 14.204 7.406 12.475 6.434 10.818 C 5.459 9.16 4.533 7.65 3.656 6.286 L 0 0 Z "/>
<path transform="matrix(1,0,0,-1,496.1784,648.3932)" stroke-width="19" stroke-linecap="round" stroke-linejoin="round" fill="none" stroke="#1f7f35" d="M 0 0 C .681 0 1.682 .389 2.997 1.17 C 4.313 1.948 5.775 2.997 7.384 4.312 C 8.991 5.629 10.695 7.187 12.5 8.991 C 14.303 10.794 16.082 12.815 17.837 15.059 L 23.977 25.438 C 24.073 25.534 24.146 25.585 24.196 25.585 C 24.244 25.585 24.317 25.681 24.416 25.877 L 23.977 25.438 L 25.146 27.339 C 25.535 28.509 25.878 29.971 26.17 31.726 C 26.463 33.479 26.559 35.209 26.463 36.915 C 26.364 38.619 25.999 40.081 25.366 41.301 C 24.73 42.519 23.732 43.177 22.369 43.274 C 21.295 43.371 19.614 42.836 17.325 41.667 C 15.034 40.497 12.597 38.597 10.015 35.965 C 7.432 33.333 4.898 29.945 2.413 25.804 C -.072 21.66 -2.047 16.616 -3.509 10.673 C -3.801 9.697 -4.021 8.575 -4.166 7.31 C -4.312 6.042 -4.312 4.848 -4.166 3.728 C -4.021 2.606 -3.632 1.682 -2.997 .95 C -2.364 .219 -1.365 -.099 0 0 Z M 10.088 -8.772 C 10.088 -8.188 10.111 -7.603 10.161 -7.018 C 10.209 -6.433 10.282 -5.8 10.381 -5.117 C 8.82 -6.775 7.285 -8.358 5.775 -9.868 C 4.263 -11.381 2.68 -12.696 1.023 -13.815 C -.635 -14.938 -2.364 -15.814 -4.166 -16.447 C -5.971 -17.082 -7.895 -17.397 -9.941 -17.397 C -14.133 -17.302 -17.423 -15.767 -19.81 -12.792 C -22.199 -9.82 -23.487 -5.409 -23.684 .438 C -23.779 4.142 -23.293 8.041 -22.222 12.135 C -21.15 16.228 -19.615 20.271 -17.616 24.269 C -15.62 28.265 -13.208 32.091 -10.38 35.745 C -7.554 39.4 -4.436 42.566 -1.023 45.248 C 2.388 47.927 6.018 50.022 9.869 51.535 C 13.718 53.044 17.641 53.703 21.638 53.508 C 22.611 53.508 23.732 53.337 25 52.997 C 26.266 52.654 27.509 52.046 28.729 51.169 C 29.946 50.292 31.018 49.072 31.945 47.514 C 32.87 45.954 33.43 43.907 33.626 41.374 L 38.012 48.83 C 38.597 49.708 39.814 50.219 41.667 50.365 C 43.518 50.511 45.418 50.388 47.369 50 C 49.317 49.609 50.974 48.999 52.34 48.172 C 53.703 47.343 54.19 46.441 53.802 45.468 C 53.605 44.785 52.68 43.177 51.023 40.644 C 49.365 38.107 47.465 35.161 45.322 31.798 C 43.177 28.436 40.984 24.901 38.743 21.199 C 36.5 17.493 34.649 14.083 33.188 10.965 C 31.726 7.845 30.871 5.286 30.629 3.289 C 30.385 1.291 31.188 .34 33.041 .438 C 34.211 .438 35.526 .95 36.988 1.974 C 38.451 2.997 39.936 4.263 41.448 5.774 C 42.958 7.285 44.493 8.966 46.053 10.818 C 47.611 12.669 49.05 14.474 50.366 16.228 C 51.682 17.982 52.874 19.613 53.948 21.126 C 55.02 22.636 55.849 23.78 56.434 24.562 C 57.114 25.438 57.87 25.95 58.699 26.097 C 59.526 26.242 60.257 26.145 60.893 25.804 C 61.525 25.461 61.988 24.901 62.281 24.123 C 62.573 23.342 62.523 22.464 62.135 21.491 C 59.307 16.909 56.287 12.449 53.07 8.114 C 49.854 3.776 46.54 -.244 43.129 -3.947 C 42.153 -4.923 40.886 -6.238 39.328 -7.895 C 37.768 -9.554 36.038 -11.137 34.138 -12.646 C 32.237 -14.158 30.165 -15.449 27.925 -16.521 C 25.682 -17.592 23.44 -18.078 21.199 -17.982 C 17.008 -17.786 14.132 -16.79 12.573 -14.985 C 11.014 -13.183 10.184 -11.111 10.088 -8.772 Z "/>
<path transform="matrix(1,0,0,-1,588.5759,565.2067)" stroke-width="19" stroke-linecap="round" stroke-linejoin="round" fill="none" stroke="#1f7f35" d="M 0 0 C .487 .973 1.656 1.535 3.509 1.682 C 5.359 1.828 7.26 1.704 9.211 1.316 C 11.159 .925 12.815 .292 14.182 -.584 C 15.546 -1.462 16.032 -2.389 15.644 -3.362 C 15.546 -3.753 14.716 -5.263 13.158 -7.895 C 11.598 -10.526 9.624 -13.816 7.237 -17.763 C 4.848 -21.71 2.216 -26 -.657 -30.628 C -3.533 -35.259 -6.312 -39.791 -8.991 -44.225 C -11.673 -48.661 -14.107 -52.704 -16.301 -56.359 C -18.494 -60.014 -20.127 -62.817 -21.198 -64.766 C -22.564 -67.203 -23.855 -69.517 -25.072 -71.71 C -26.293 -73.903 -27.192 -75.829 -27.777 -77.484 C -28.362 -79.144 -28.581 -80.434 -28.436 -81.359 C -28.289 -82.286 -27.583 -82.748 -26.315 -82.748 C -24.561 -82.652 -22.515 -81.578 -20.175 -79.531 C -17.836 -77.484 -15.547 -75.098 -13.304 -72.368 C -11.063 -69.641 -9.016 -66.959 -7.163 -64.327 C -5.313 -61.695 -3.899 -59.795 -2.924 -58.625 C -2.243 -57.748 -1.512 -57.236 -.73 -57.09 C .049 -56.944 .754 -57.042 1.39 -57.383 C 2.022 -57.726 2.485 -58.285 2.778 -59.063 C 3.07 -59.845 3.021 -60.723 2.632 -61.695 C -.098 -66.277 -3.095 -70.737 -6.359 -75.072 C -9.626 -79.41 -12.963 -83.431 -16.374 -87.134 C -17.35 -88.109 -18.617 -89.425 -20.175 -91.081 C -21.735 -92.74 -23.465 -94.323 -25.365 -95.833 C -27.266 -97.345 -29.338 -98.636 -31.578 -99.707 C -33.822 -100.778 -36.063 -101.265 -38.304 -101.169 C -40.351 -101.071 -42.055 -100.683 -43.421 -99.999 C -44.784 -99.318 -45.855 -98.489 -46.637 -97.514 C -47.416 -96.541 -48.001 -95.444 -48.392 -94.225 C -48.78 -93.007 -48.977 -91.813 -48.977 -90.643 C -48.977 -88.011 -48.439 -85.039 -47.368 -81.725 C -46.294 -78.412 -45.004 -75.146 -43.494 -71.93 C -41.981 -68.713 -40.449 -65.741 -38.889 -63.011 C -37.331 -60.283 -36.11 -58.237 -35.233 -56.871 L 0 0 Z "/>
<path transform="matrix(1,0,0,-1,627.4636,603.364)" stroke-width="19" stroke-linecap="round" stroke-linejoin="round" fill="none" stroke="#1f7f35" d="M 0 0 C -1.462 0 -3.289 -.781 -5.482 -2.339 C -7.676 -3.899 -9.992 -5.921 -12.427 -8.406 C -14.864 -10.892 -17.251 -13.768 -19.591 -17.032 C -21.93 -20.299 -23.881 -23.588 -25.438 -26.9 C -22.126 -26.023 -18.812 -24.732 -15.497 -23.026 C -12.185 -21.322 -9.162 -19.495 -6.433 -17.544 C -3.705 -15.596 -1.439 -13.67 .365 -11.77 C 2.168 -9.868 3.313 -8.237 3.801 -6.871 C 3.897 -6.483 4.021 -5.898 4.167 -5.117 C 4.312 -4.338 4.288 -3.56 4.094 -2.778 C 3.897 -1.999 3.483 -1.341 2.851 -.804 C 2.216 -.27 1.266 0 0 0 Z M 13.012 -4.094 C 12.913 -6.823 11.865 -9.846 9.868 -13.158 C 7.87 -16.473 5.066 -19.641 1.462 -22.661 C -2.145 -25.684 -6.483 -28.34 -11.55 -30.629 C -16.619 -32.92 -22.223 -34.356 -28.362 -34.941 C -28.559 -35.818 -28.705 -36.648 -28.801 -37.427 C -28.899 -38.208 -28.947 -38.987 -28.947 -39.767 C -28.947 -43.081 -28.486 -45.884 -27.559 -48.173 C -26.634 -50.464 -24.611 -51.707 -21.491 -51.9 C -19.934 -51.9 -18.179 -51.561 -16.229 -50.877 C -14.279 -50.196 -11.94 -49.173 -9.211 -47.808 C -6.286 -46.249 -3.582 -44.371 -1.097 -42.179 C 1.389 -39.985 3.801 -37.623 6.141 -35.088 C 7.603 -33.53 8.795 -32.164 9.723 -30.994 C 10.647 -29.824 11.524 -28.705 12.354 -27.632 C 13.181 -26.561 14.01 -25.416 14.839 -24.196 C 15.666 -22.979 16.715 -21.491 17.982 -19.737 C 18.663 -19.152 19.395 -18.837 20.176 -18.787 C 20.954 -18.738 21.587 -18.885 22.076 -19.226 C 22.562 -19.568 22.903 -20.103 23.1 -20.833 C 23.294 -21.564 23.246 -22.368 22.953 -23.246 C 20.614 -27.047 17.933 -31.238 14.912 -35.818 C 11.89 -40.401 8.454 -44.689 4.605 -48.685 C .754 -52.682 -3.534 -56.093 -8.26 -58.918 C -12.989 -61.746 -18.179 -63.353 -23.83 -63.743 C -27.828 -64.035 -31.337 -63.645 -34.356 -62.573 C -37.379 -61.502 -39.912 -60.04 -41.959 -58.188 C -44.006 -56.337 -45.566 -54.192 -46.638 -51.755 C -47.709 -49.319 -48.294 -46.784 -48.392 -44.152 C -48.685 -39.378 -48.074 -34.699 -46.564 -30.117 C -45.055 -25.537 -42.982 -21.199 -40.351 -17.105 C -37.72 -13.012 -34.674 -9.211 -31.214 -5.702 C -27.755 -2.193 -24.221 .827 -20.614 3.362 C -18.274 5.018 -15.351 6.407 -11.842 7.529 C -8.333 8.648 -4.875 9.209 -1.462 9.209 C 2.728 9.209 6.214 8.041 8.991 5.702 C 11.769 3.362 13.107 .096 13.012 -4.094 Z "/>
<path transform="matrix(1,0,0,-1,676.4401,585.5285)" stroke-width="19" stroke-linecap="round" stroke-linejoin="round" fill="none" stroke="#1f7f35" d="M 0 0 C -.781 -.488 -1.731 -1.146 -2.851 -1.974 C -3.972 -2.803 -4.922 -3.34 -5.701 -3.582 C -6.482 -3.826 -6.896 -3.559 -6.944 -2.777 C -6.994 -1.999 -6.238 -.146 -4.678 2.778 C -3.412 5.117 -1.731 7.406 .366 9.649 C 2.461 11.89 4.921 13.546 7.749 14.62 C 9.99 15.498 12.428 15.984 15.059 16.082 C 17.69 16.178 19.932 15.644 21.784 14.474 C 23.831 13.108 24.658 12.011 24.27 11.185 C 23.879 10.355 22.515 9.697 20.176 9.211 C 16.471 8.528 13.012 7.358 9.796 5.702 C 6.579 4.044 3.313 2.143 0 0 Z M -14.912 -64.327 C -13.256 -64.425 -11.38 -63.84 -9.283 -62.573 C -7.188 -61.307 -5.068 -59.649 -2.924 -57.602 C -3.314 -55.946 -3.485 -54.044 -3.436 -51.9 C -3.388 -49.757 -3.021 -47.418 -2.339 -44.882 C -2.145 -44.005 -1.706 -42.641 -1.022 -40.789 C -.342 -38.938 .561 -37.061 1.682 -35.16 C 2.801 -33.259 4.094 -31.555 5.556 -30.043 C 7.018 -28.533 8.576 -27.631 10.234 -27.338 C 11.696 -27.144 12.815 -27.338 13.597 -27.923 C 13.597 -27.535 13.62 -27.169 13.67 -26.827 C 13.718 -26.487 13.743 -26.121 13.743 -25.73 C 13.743 -23.683 13.378 -22.148 12.646 -21.125 C 11.916 -20.102 10.575 -19.542 8.626 -19.444 C 6.872 -19.444 4.435 -20.419 1.316 -22.368 C -1.804 -24.319 -4.874 -27.023 -7.895 -30.482 C -10.916 -33.943 -13.522 -38.011 -15.716 -42.689 C -17.909 -47.368 -19.006 -52.389 -19.006 -57.748 C -19.006 -59.114 -18.738 -60.526 -18.201 -61.988 C -17.667 -63.45 -16.57 -64.231 -14.912 -64.327 Z M 36.55 -45.906 C 35.381 -47.564 33.747 -49.561 31.652 -51.9 C 29.556 -54.239 27.34 -56.555 25 -58.844 C 22.661 -61.135 20.322 -63.109 17.983 -64.765 C 15.644 -66.424 13.547 -67.397 11.696 -67.689 C 9.161 -68.08 6.676 -67.835 4.24 -66.958 C .146 -71.052 -4.338 -74.341 -9.21 -76.827 C -14.085 -79.312 -19.151 -80.457 -24.415 -80.262 C -28.606 -80.068 -32.067 -78.266 -34.795 -74.853 C -37.522 -71.443 -38.889 -66.764 -38.889 -60.818 C -38.889 -54.97 -37.693 -48.903 -35.307 -42.617 C -32.919 -36.33 -29.63 -30.628 -25.438 -25.511 C -21.249 -20.394 -16.374 -16.205 -10.818 -12.938 C -5.263 -9.674 .633 -8.091 6.872 -8.187 C 11.258 -8.285 14.767 -9.648 17.398 -12.28 C 20.029 -14.912 21.588 -18.567 22.076 -23.245 C 22.563 -28.8 21.857 -34.576 19.957 -40.57 C 18.056 -46.564 15.352 -52.243 11.843 -57.602 C 13.597 -57.408 15.374 -56.75 17.179 -55.628 C 18.981 -54.508 20.735 -53.167 22.442 -51.608 C 24.146 -50.049 25.731 -48.417 27.193 -46.709 C 28.655 -45.005 29.921 -43.47 30.995 -42.105 C 31.579 -41.326 32.091 -40.62 32.529 -39.985 C 32.969 -39.352 33.382 -38.792 33.772 -38.303 C 34.453 -37.426 35.209 -36.94 36.038 -36.841 C 36.865 -36.746 37.597 -36.867 38.231 -37.207 C 38.864 -37.549 39.328 -38.109 39.62 -38.888 C 39.913 -39.669 39.814 -40.497 39.328 -41.374 L 36.55 -45.906 Z "/>
<path transform="matrix(1,0,0,-1,709.7722,659.9431)" stroke-width="19" stroke-linecap="round" stroke-linejoin="round" fill="none" stroke="#1f7f35" d="M 0 0 C -.976 -1.853 -1.682 -3.217 -2.12 -4.094 C -2.559 -4.971 -3.022 -5.556 -3.509 -5.848 C -3.998 -6.141 -4.655 -6.262 -5.482 -6.214 C -6.31 -6.163 -7.552 -6.141 -9.211 -6.141 C -10.866 -6.141 -12.208 -6.188 -13.23 -6.286 C -14.254 -6.383 -15.446 -6.383 -16.812 -6.286 C -17.786 -6.286 -18.421 -6.042 -18.714 -5.556 C -19.006 -5.069 -19.102 -4.484 -19.006 -3.801 C -18.907 -3.12 -18.736 -2.485 -18.494 -1.9 C -18.25 -1.315 -18.078 -.928 -17.982 -.731 C -15.059 6.09 -10.818 14.789 -5.263 25.365 C .292 35.939 7.942 48.78 17.69 63.888 C 18.177 64.766 19.347 65.278 21.199 65.423 C 23.049 65.57 24.95 65.447 26.9 65.058 C 28.85 64.667 30.506 64.057 31.871 63.231 C 33.235 62.401 33.722 61.5 33.333 60.526 C 33.137 59.843 32.333 58.356 30.921 56.067 C 29.507 53.776 27.826 51.071 25.877 47.953 L 27.924 50.146 C 28.897 51.119 29.971 52.46 31.141 54.167 C 32.31 55.871 33.674 57.529 35.234 59.137 C 36.792 60.746 38.498 62.182 40.351 63.45 C 42.201 64.715 44.248 65.447 46.491 65.643 C 50.877 66.031 54.263 65.179 56.652 63.084 C 59.039 60.988 60.136 58.43 59.941 55.409 C 59.745 53.655 59.356 51.876 58.772 50.073 C 58.188 48.269 57.479 46.466 56.652 44.664 C 55.823 42.859 54.945 41.13 54.021 39.474 C 53.093 37.815 52.193 36.306 51.315 34.941 L 47.661 28.655 C 46.394 26.412 45.249 24.27 44.226 22.223 C 43.202 20.176 42.445 18.396 41.959 16.886 C 41.471 15.374 41.301 14.182 41.447 13.304 C 41.594 12.427 42.201 11.988 43.275 11.988 C 45.029 12.084 47.076 13.181 49.415 15.277 C 51.755 17.373 54.043 19.76 56.287 22.441 C 58.527 25.121 60.574 27.777 62.427 30.409 C 64.277 33.041 65.691 34.941 66.667 36.111 C 67.348 36.988 68.078 37.5 68.859 37.646 C 69.639 37.792 70.345 37.694 70.979 37.354 C 71.612 37.011 72.076 36.451 72.368 35.673 C 72.661 34.892 72.61 34.014 72.223 33.041 C 69.492 28.459 66.495 23.999 63.231 19.664 C 59.965 15.326 56.627 11.306 53.217 7.603 C 52.241 6.627 50.974 5.312 49.415 3.655 C 47.855 1.996 46.126 .413 44.226 -1.097 C 42.324 -2.608 40.253 -3.899 38.012 -4.971 C 35.769 -6.042 33.527 -6.528 31.287 -6.433 C 29.24 -6.335 27.533 -5.994 26.17 -5.409 C 24.804 -4.824 23.732 -4.094 22.953 -3.217 C 22.172 -2.339 21.587 -1.341 21.199 -.22 C 20.809 .9 20.563 2.047 20.468 3.217 C 20.37 4.58 20.563 6.262 21.053 8.261 C 21.539 10.257 22.223 12.329 23.1 14.474 C 23.977 16.616 24.927 18.714 25.95 20.761 C 26.974 22.807 27.972 24.609 28.947 26.17 C 30.506 28.995 32.285 32.139 34.284 35.6 C 36.28 39.058 38.012 42.3 39.474 45.321 C 40.936 48.342 41.959 50.853 42.544 52.851 C 43.129 54.848 42.786 55.848 41.521 55.848 C 40.154 55.848 38.546 55.19 36.696 53.874 C 34.844 52.559 32.895 50.853 30.848 48.758 C 28.801 46.66 26.755 44.347 24.708 41.813 C 22.661 39.277 20.761 36.792 19.006 34.356 C 17.252 31.919 15.691 29.701 14.327 27.705 C 12.962 25.706 11.988 24.219 11.403 23.246 C 10.526 21.587 9.599 19.76 8.626 17.764 C 7.65 15.765 6.652 13.718 5.629 11.623 C 4.605 9.525 3.604 7.479 2.632 5.482 C 1.656 3.483 .779 1.656 0 0 Z "/>
<path transform="matrix(1,0,0,-1,291.7956,539.7678)" d="M 0 0 C -4.484 -.099 -8.968 -.61 -13.45 -1.535 C -17.935 -2.463 -22.369 -3.753 -26.754 -5.41 C -21.688 -7.847 -16.911 -9.795 -12.427 -11.257 C -7.945 -12.72 -3.655 -13.354 .438 -13.158 C 7.844 -12.866 13.377 -11.989 17.032 -10.526 C 20.687 -9.064 22.464 -7.529 22.368 -5.921 C 22.27 -4.313 20.344 -2.901 16.593 -1.682 C 12.84 -.464 7.31 .096 0 0 M 21.053 -87.134 C 16.568 -94.542 11.403 -101.633 5.556 -108.407 C -.292 -115.182 -6.798 -121.103 -13.962 -126.169 C -21.126 -131.236 -28.899 -135.161 -37.281 -137.938 C -45.665 -140.716 -54.63 -141.861 -64.182 -141.375 C -72.661 -140.984 -80.19 -139.302 -86.769 -136.331 C -93.348 -133.356 -98.904 -129.458 -103.436 -124.634 C -107.968 -119.81 -111.381 -114.207 -113.67 -107.822 C -115.961 -101.439 -117.058 -94.59 -116.959 -87.281 C -116.863 -78.705 -115.351 -70.419 -112.427 -62.426 C -109.503 -54.437 -105.533 -46.955 -100.512 -39.985 C -95.493 -33.019 -89.62 -26.585 -82.895 -20.687 C -76.17 -14.792 -69.006 -9.602 -61.404 -5.117 C -66.473 -3.267 -71.542 -1.513 -76.608 .146 C -81.677 1.802 -86.696 3.264 -91.667 4.532 C -96.638 5.797 -101.487 6.773 -106.214 7.456 C -110.942 8.137 -115.497 8.429 -119.883 8.333 C -123.296 8.235 -126.268 7.479 -128.801 6.067 C -131.337 4.653 -133.432 2.972 -135.088 1.023 C -136.747 -.928 -137.989 -2.924 -138.816 -4.971 C -139.645 -7.018 -140.109 -8.676 -140.205 -9.942 C -140.303 -11.696 -140.303 -13.451 -140.205 -15.205 C -140.109 -16.959 -139.744 -18.618 -139.108 -20.176 C -138.476 -21.736 -137.478 -23.1 -136.111 -24.269 C -134.748 -25.439 -132.799 -26.268 -130.263 -26.754 C -129.29 -26.951 -128.194 -27.12 -126.974 -27.266 C -125.756 -27.413 -124.319 -27.365 -122.661 -27.12 C -121.005 -26.878 -119.104 -26.414 -116.959 -25.731 C -114.816 -25.05 -112.427 -23.929 -109.795 -22.369 C -109.017 -21.882 -108.212 -22.053 -107.383 -22.88 C -106.556 -23.709 -105.921 -24.927 -105.482 -26.535 C -105.044 -28.144 -104.898 -30.069 -105.044 -32.31 C -105.19 -34.553 -105.8 -36.794 -106.872 -39.035 C -109.992 -45.664 -114.718 -50.464 -121.053 -53.436 C -127.39 -56.41 -134.553 -57.068 -142.544 -55.409 C -150.439 -53.655 -156.531 -50.878 -160.819 -47.076 C -165.109 -43.275 -168.202 -39.134 -170.103 -34.649 C -172.003 -30.167 -172.979 -25.658 -173.026 -21.126 C -173.077 -16.594 -172.807 -12.72 -172.223 -9.503 C -171.443 -5.41 -169.737 -1.122 -167.105 3.362 C -164.474 7.844 -160.965 11.963 -156.579 15.716 C -152.193 19.467 -146.955 22.515 -140.863 24.854 C -134.772 27.193 -127.828 28.312 -120.029 28.216 C -112.72 28.02 -105.654 27.167 -98.831 25.658 C -92.009 24.146 -85.431 22.222 -79.094 19.883 C -72.759 17.543 -66.692 14.935 -60.892 12.061 C -55.094 9.185 -49.514 6.334 -44.152 3.509 C -36.257 6.919 -28.363 9.503 -20.468 11.257 C -12.573 13.012 -4.971 13.838 2.339 13.743 C 11.792 13.253 19.127 11.499 24.342 8.479 C 29.555 5.457 32.113 1.656 32.018 -2.924 C 32.018 -5.848 31.14 -8.457 29.386 -10.746 C 27.631 -13.037 25.242 -14.963 22.222 -16.521 C 19.2 -18.081 15.666 -19.298 11.623 -20.176 C 7.577 -21.053 3.312 -21.542 -1.17 -21.638 C -6.725 -21.834 -12.938 -21.005 -19.81 -19.152 C -26.682 -17.302 -33.918 -15.011 -41.521 -12.281 C -48.344 -16.278 -54.729 -21.053 -60.673 -26.608 C -66.619 -32.164 -71.736 -38.231 -76.023 -44.811 C -80.313 -51.389 -83.626 -58.384 -85.965 -65.79 C -88.304 -73.198 -89.328 -80.702 -89.035 -88.304 C -88.743 -94.933 -87.5 -100.39 -85.307 -104.678 C -83.114 -108.968 -80.435 -112.378 -77.266 -114.913 C -74.1 -117.448 -70.737 -119.25 -67.179 -120.322 C -63.622 -121.395 -60.333 -121.929 -57.31 -121.929 C -43.373 -122.222 -30.215 -119.152 -17.836 -112.719 C -5.459 -106.287 5.604 -96.736 15.351 -84.064 C 16.032 -83.187 16.788 -82.675 17.617 -82.529 C 18.444 -82.383 19.175 -82.481 19.81 -82.822 C 20.443 -83.165 20.906 -83.724 21.199 -84.502 C 21.491 -85.284 21.441 -86.162 21.053 -87.134 " fill="#ffffff"/>
<path transform="matrix(1,0,0,-1,324.3972,648.3932)" d="M 0 0 C .681 0 1.681 .389 2.997 1.17 C 4.313 1.948 5.775 2.997 7.383 4.312 C 8.991 5.629 10.695 7.187 12.5 8.991 C 14.302 10.794 16.082 12.815 17.836 15.059 L 23.977 25.438 C 24.072 25.534 24.146 25.585 24.196 25.585 C 24.244 25.585 24.317 25.681 24.415 25.877 L 23.977 25.438 L 25.146 27.339 C 25.535 28.509 25.877 29.971 26.169 31.726 C 26.462 33.479 26.558 35.209 26.462 36.915 C 26.364 38.619 25.998 40.081 25.365 41.301 C 24.73 42.519 23.732 43.177 22.368 43.274 C 21.295 43.371 19.613 42.836 17.325 41.667 C 15.033 40.497 12.596 38.597 10.015 35.965 C 7.431 33.333 4.897 29.945 2.412 25.804 C -.073 21.66 -2.047 16.616 -3.509 10.673 C -3.801 9.697 -4.021 8.575 -4.167 7.31 C -4.313 6.042 -4.313 4.848 -4.167 3.728 C -4.021 2.606 -3.632 1.682 -2.997 .95 C -2.364 .219 -1.366 -.099 0 0 M 10.087 -8.772 C 10.087 -8.188 10.11 -7.603 10.161 -7.018 C 10.208 -6.433 10.282 -5.8 10.38 -5.117 C 8.82 -6.775 7.285 -8.358 5.775 -9.868 C 4.263 -11.381 2.68 -12.696 1.023 -13.815 C -.635 -14.938 -2.364 -15.814 -4.167 -16.447 C -5.971 -17.082 -7.895 -17.397 -9.941 -17.397 C -14.133 -17.302 -17.423 -15.767 -19.81 -12.792 C -22.2 -9.82 -23.488 -5.409 -23.684 .438 C -23.78 4.142 -23.293 8.041 -22.222 12.135 C -21.151 16.228 -19.616 20.271 -17.617 24.269 C -15.621 28.265 -13.208 32.091 -10.38 35.745 C -7.555 39.4 -4.437 42.566 -1.023 45.248 C 2.387 47.927 6.017 50.022 9.868 51.535 C 13.717 53.044 17.64 53.703 21.637 53.508 C 22.61 53.508 23.732 53.337 25 52.997 C 26.266 52.654 27.508 52.046 28.728 51.169 C 29.946 50.292 31.017 49.072 31.944 47.514 C 32.87 45.954 33.429 43.907 33.625 41.374 L 38.012 48.83 C 38.596 49.708 39.814 50.219 41.667 50.365 C 43.517 50.511 45.417 50.388 47.368 50 C 49.317 49.609 50.973 48.999 52.339 48.172 C 53.703 47.343 54.189 46.441 53.801 45.468 C 53.604 44.785 52.68 43.177 51.023 40.644 C 49.365 38.107 47.464 35.161 45.322 31.798 C 43.177 28.436 40.983 24.901 38.743 21.199 C 36.5 17.493 34.649 14.083 33.187 10.965 C 31.725 7.845 30.871 5.286 30.628 3.289 C 30.384 1.291 31.188 .34 33.041 .438 C 34.21 .438 35.526 .95 36.988 1.974 C 38.45 2.997 39.935 4.263 41.447 5.774 C 42.958 7.285 44.492 8.966 46.053 10.818 C 47.61 12.669 49.05 14.474 50.365 16.228 C 51.681 17.982 52.874 19.613 53.947 21.126 C 55.019 22.636 55.848 23.78 56.433 24.562 C 57.113 25.438 57.87 25.95 58.699 26.097 C 59.526 26.242 60.257 26.145 60.892 25.804 C 61.524 25.461 61.988 24.901 62.281 24.123 C 62.573 23.342 62.523 22.464 62.134 21.491 C 59.307 16.909 56.287 12.449 53.07 8.114 C 49.854 3.776 46.539 -.244 43.128 -3.947 C 42.153 -4.923 40.885 -6.238 39.328 -7.895 C 37.767 -9.554 36.038 -11.137 34.137 -12.646 C 32.237 -14.158 30.165 -15.449 27.924 -16.521 C 25.681 -17.592 23.44 -18.078 21.199 -17.982 C 17.007 -17.786 14.131 -16.79 12.573 -14.985 C 11.013 -13.183 10.184 -11.111 10.087 -8.772 " fill="#ffffff"/>
<path transform="matrix(1,0,0,-1,459.7761,631.2878)" d="M 0 0 C -1.268 -2.243 -2.389 -4.386 -3.361 -6.433 C -4.338 -8.479 -5.068 -10.26 -5.555 -11.77 C -6.043 -13.281 -6.238 -14.474 -6.139 -15.352 C -6.043 -16.229 -5.459 -16.667 -4.385 -16.667 C -2.631 -16.571 -.584 -15.475 1.756 -13.378 C 4.094 -11.282 6.383 -8.896 8.627 -6.214 C 10.867 -3.534 12.939 -.878 14.84 1.754 C 16.74 4.386 18.129 6.286 19.006 7.456 C 19.687 8.333 20.443 8.845 21.273 8.991 C 22.1 9.137 22.83 9.039 23.467 8.698 C 24.1 8.355 24.562 7.796 24.855 7.018 C 25.146 6.236 25.098 5.358 24.709 4.386 C 21.881 -.196 18.861 -4.656 15.645 -8.991 C 12.428 -13.329 9.113 -17.35 5.703 -21.053 C 4.727 -22.028 3.459 -23.344 1.902 -25 C .342 -26.659 -1.389 -28.242 -3.289 -29.752 C -5.189 -31.264 -7.262 -32.555 -9.501 -33.626 C -11.746 -34.697 -13.986 -35.184 -16.226 -35.088 C -18.273 -34.99 -19.98 -34.649 -21.343 -34.064 C -22.71 -33.479 -23.806 -32.749 -24.632 -31.872 C -25.462 -30.994 -26.046 -29.996 -26.388 -28.875 C -26.73 -27.755 -26.949 -26.608 -27.044 -25.438 C -27.242 -24.075 -27.07 -22.394 -26.533 -20.395 C -26 -18.398 -25.316 -16.326 -24.488 -14.182 C -23.66 -12.039 -22.732 -9.941 -21.708 -7.895 C -20.685 -5.849 -19.687 -4.046 -18.712 -2.485 C -17.154 .34 -15.375 3.483 -13.376 6.944 C -11.378 10.402 -9.625 13.645 -8.113 16.666 C -6.604 19.687 -5.58 22.197 -5.043 24.195 C -4.508 26.192 -4.873 27.192 -6.139 27.192 C -7.797 27.192 -9.794 26.218 -12.132 24.269 C -14.472 22.318 -16.884 19.956 -19.371 17.178 C -21.855 14.4 -24.267 11.426 -26.607 8.26 C -28.947 5.092 -30.994 2.289 -32.748 -.146 L -49.56 -31.433 C -50.535 -32.993 -51.292 -33.918 -51.826 -34.211 C -52.363 -34.503 -52.972 -34.649 -53.654 -34.649 C -55.505 -34.745 -57.798 -34.818 -60.525 -34.869 C -63.255 -34.917 -65.448 -34.844 -67.104 -34.649 C -68.178 -34.554 -68.591 -34.188 -68.347 -33.553 C -68.104 -32.92 -67.787 -32.018 -67.396 -30.849 C -66.91 -29.192 -65.667 -26.659 -63.667 -23.246 C -61.671 -19.835 -59.406 -15.986 -56.871 -11.696 C -54.337 -7.408 -51.73 -2.997 -49.048 1.535 C -46.369 6.067 -44.029 10.184 -42.031 13.889 C -40.035 17.592 -38.646 20.662 -37.865 23.1 C -37.085 25.534 -37.33 26.802 -38.595 26.9 C -39.96 26.996 -41.617 26.363 -43.566 25 C -45.517 23.634 -47.539 21.879 -49.632 19.736 C -51.73 17.592 -53.849 15.204 -55.994 12.573 C -58.138 9.941 -60.111 7.405 -61.914 4.971 C -63.718 2.533 -65.301 .315 -66.665 -1.682 C -68.031 -3.681 -68.957 -5.069 -69.443 -5.849 C -69.542 -5.946 -69.589 -6.045 -69.589 -6.141 C -70.466 -7.799 -71.394 -9.602 -72.367 -11.55 C -73.342 -13.501 -74.318 -15.475 -75.291 -17.471 C -76.267 -19.47 -77.217 -21.443 -78.142 -23.393 C -79.069 -25.343 -79.921 -27.098 -80.7 -28.655 C -81.578 -30.508 -82.235 -31.872 -82.674 -32.749 C -83.113 -33.626 -83.576 -34.211 -84.063 -34.503 C -84.552 -34.796 -85.208 -34.917 -86.037 -34.869 C -86.864 -34.818 -88.157 -34.796 -89.911 -34.796 C -91.567 -34.796 -92.883 -34.844 -93.858 -34.941 C -94.832 -35.038 -96.001 -35.038 -97.367 -34.941 C -98.34 -34.941 -98.975 -34.697 -99.268 -34.211 C -99.56 -33.725 -99.681 -33.14 -99.633 -32.456 C -99.583 -31.775 -99.437 -31.141 -99.194 -30.556 C -98.95 -29.971 -98.779 -29.583 -98.683 -29.387 C -95.759 -22.565 -91.519 -13.866 -85.963 -3.29 C -80.408 7.284 -72.758 20.125 -63.011 35.233 C -62.425 36.111 -61.208 36.623 -59.355 36.768 C -57.505 36.915 -55.626 36.792 -53.726 36.403 C -51.826 36.012 -50.169 35.402 -48.755 34.576 C -47.343 33.746 -46.832 32.844 -47.22 31.871 C -47.417 31.286 -48.222 29.872 -49.632 27.631 C -51.046 25.388 -52.728 22.709 -54.677 19.591 L -54.238 20.029 C -53.265 21.002 -52.095 22.368 -50.73 24.123 C -49.367 25.877 -47.806 27.654 -46.05 29.459 C -44.296 31.26 -42.421 32.894 -40.423 34.356 C -38.425 35.818 -36.306 36.695 -34.062 36.988 C -31.628 37.375 -29.603 37.28 -27.996 36.695 C -26.388 36.111 -25.144 35.281 -24.267 34.209 C -23.39 33.136 -22.783 31.918 -22.441 30.555 C -22.099 29.189 -21.929 27.924 -21.929 26.754 C -21.929 26.266 -21.953 25.778 -22.001 25.292 C -22.052 24.804 -22.125 24.316 -22.22 23.83 C -21.15 24.901 -19.833 26.145 -18.273 27.559 C -16.716 28.97 -15.009 30.336 -13.156 31.651 C -11.306 32.967 -9.355 34.136 -7.309 35.16 C -5.262 36.183 -3.168 36.792 -1.021 36.988 C 3.266 37.375 6.627 36.524 9.064 34.429 C 11.5 32.333 12.574 29.774 12.281 26.754 C 12.086 25 11.697 23.221 11.111 21.418 C 10.527 19.613 9.844 17.811 9.064 16.009 C 8.283 14.204 7.406 12.475 6.434 10.818 C 5.459 9.16 4.533 7.65 3.656 6.286 Z " fill="#ffffff"/>
<path transform="matrix(1,0,0,-1,496.1784,648.3932)" d="M 0 0 C .681 0 1.682 .389 2.997 1.17 C 4.313 1.948 5.775 2.997 7.384 4.312 C 8.991 5.629 10.695 7.187 12.5 8.991 C 14.303 10.794 16.082 12.815 17.837 15.059 L 23.977 25.438 C 24.073 25.534 24.146 25.585 24.196 25.585 C 24.244 25.585 24.317 25.681 24.416 25.877 L 23.977 25.438 L 25.146 27.339 C 25.535 28.509 25.878 29.971 26.17 31.726 C 26.463 33.479 26.559 35.209 26.463 36.915 C 26.364 38.619 25.999 40.081 25.366 41.301 C 24.73 42.519 23.732 43.177 22.369 43.274 C 21.295 43.371 19.614 42.836 17.325 41.667 C 15.034 40.497 12.597 38.597 10.015 35.965 C 7.432 33.333 4.898 29.945 2.413 25.804 C -.072 21.66 -2.047 16.616 -3.509 10.673 C -3.801 9.697 -4.021 8.575 -4.166 7.31 C -4.312 6.042 -4.312 4.848 -4.166 3.728 C -4.021 2.606 -3.632 1.682 -2.997 .95 C -2.364 .219 -1.365 -.099 0 0 M 10.088 -8.772 C 10.088 -8.188 10.111 -7.603 10.161 -7.018 C 10.209 -6.433 10.282 -5.8 10.381 -5.117 C 8.82 -6.775 7.285 -8.358 5.775 -9.868 C 4.263 -11.381 2.68 -12.696 1.023 -13.815 C -.635 -14.938 -2.364 -15.814 -4.166 -16.447 C -5.971 -17.082 -7.895 -17.397 -9.941 -17.397 C -14.133 -17.302 -17.423 -15.767 -19.81 -12.792 C -22.199 -9.82 -23.487 -5.409 -23.684 .438 C -23.779 4.142 -23.293 8.041 -22.222 12.135 C -21.15 16.228 -19.615 20.271 -17.616 24.269 C -15.62 28.265 -13.208 32.091 -10.38 35.745 C -7.554 39.4 -4.436 42.566 -1.023 45.248 C 2.388 47.927 6.018 50.022 9.869 51.535 C 13.718 53.044 17.641 53.703 21.638 53.508 C 22.611 53.508 23.732 53.337 25 52.997 C 26.266 52.654 27.509 52.046 28.729 51.169 C 29.946 50.292 31.018 49.072 31.945 47.514 C 32.87 45.954 33.43 43.907 33.626 41.374 L 38.012 48.83 C 38.597 49.708 39.814 50.219 41.667 50.365 C 43.518 50.511 45.418 50.388 47.369 50 C 49.317 49.609 50.974 48.999 52.34 48.172 C 53.703 47.343 54.19 46.441 53.802 45.468 C 53.605 44.785 52.68 43.177 51.023 40.644 C 49.365 38.107 47.465 35.161 45.322 31.798 C 43.177 28.436 40.984 24.901 38.743 21.199 C 36.5 17.493 34.649 14.083 33.188 10.965 C 31.726 7.845 30.871 5.286 30.629 3.289 C 30.385 1.291 31.188 .34 33.041 .438 C 34.211 .438 35.526 .95 36.988 1.974 C 38.451 2.997 39.936 4.263 41.448 5.774 C 42.958 7.285 44.493 8.966 46.053 10.818 C 47.611 12.669 49.05 14.474 50.366 16.228 C 51.682 17.982 52.874 19.613 53.948 21.126 C 55.02 22.636 55.849 23.78 56.434 24.562 C 57.114 25.438 57.87 25.95 58.699 26.097 C 59.526 26.242 60.257 26.145 60.893 25.804 C 61.525 25.461 61.988 24.901 62.281 24.123 C 62.573 23.342 62.523 22.464 62.135 21.491 C 59.307 16.909 56.287 12.449 53.07 8.114 C 49.854 3.776 46.54 -.244 43.129 -3.947 C 42.153 -4.923 40.886 -6.238 39.328 -7.895 C 37.768 -9.554 36.038 -11.137 34.138 -12.646 C 32.237 -14.158 30.165 -15.449 27.925 -16.521 C 25.682 -17.592 23.44 -18.078 21.199 -17.982 C 17.008 -17.786 14.132 -16.79 12.573 -14.985 C 11.014 -13.183 10.184 -11.111 10.088 -8.772 " fill="#ffffff"/>
<path transform="matrix(1,0,0,-1,588.5759,565.2067)" d="M 0 0 C .487 .973 1.656 1.535 3.509 1.682 C 5.359 1.828 7.26 1.704 9.211 1.316 C 11.159 .925 12.815 .292 14.182 -.584 C 15.546 -1.462 16.032 -2.389 15.644 -3.362 C 15.546 -3.753 14.716 -5.263 13.158 -7.895 C 11.598 -10.526 9.624 -13.816 7.237 -17.763 C 4.848 -21.71 2.216 -26 -.657 -30.628 C -3.533 -35.259 -6.312 -39.791 -8.991 -44.225 C -11.673 -48.661 -14.107 -52.704 -16.301 -56.359 C -18.494 -60.014 -20.127 -62.817 -21.198 -64.766 C -22.564 -67.203 -23.855 -69.517 -25.072 -71.71 C -26.293 -73.903 -27.192 -75.829 -27.777 -77.484 C -28.362 -79.144 -28.581 -80.434 -28.436 -81.359 C -28.289 -82.286 -27.583 -82.748 -26.315 -82.748 C -24.561 -82.652 -22.515 -81.578 -20.175 -79.531 C -17.836 -77.484 -15.547 -75.098 -13.304 -72.368 C -11.063 -69.641 -9.016 -66.959 -7.163 -64.327 C -5.313 -61.695 -3.899 -59.795 -2.924 -58.625 C -2.243 -57.748 -1.512 -57.236 -.73 -57.09 C .049 -56.944 .754 -57.042 1.39 -57.383 C 2.022 -57.726 2.485 -58.285 2.778 -59.063 C 3.07 -59.845 3.021 -60.723 2.632 -61.695 C -.098 -66.277 -3.095 -70.737 -6.359 -75.072 C -9.626 -79.41 -12.963 -83.431 -16.374 -87.134 C -17.35 -88.109 -18.617 -89.425 -20.175 -91.081 C -21.735 -92.74 -23.465 -94.323 -25.365 -95.833 C -27.266 -97.345 -29.338 -98.636 -31.578 -99.707 C -33.822 -100.778 -36.063 -101.265 -38.304 -101.169 C -40.351 -101.071 -42.055 -100.683 -43.421 -99.999 C -44.784 -99.318 -45.855 -98.489 -46.637 -97.514 C -47.416 -96.541 -48.001 -95.444 -48.392 -94.225 C -48.78 -93.007 -48.977 -91.813 -48.977 -90.643 C -48.977 -88.011 -48.439 -85.039 -47.368 -81.725 C -46.294 -78.412 -45.004 -75.146 -43.494 -71.93 C -41.981 -68.713 -40.449 -65.741 -38.889 -63.011 C -37.331 -60.283 -36.11 -58.237 -35.233 -56.871 Z " fill="#ffffff"/>
<path transform="matrix(1,0,0,-1,627.4636,603.364)" d="M 0 0 C -1.462 0 -3.289 -.781 -5.482 -2.339 C -7.676 -3.899 -9.992 -5.921 -12.427 -8.406 C -14.864 -10.892 -17.251 -13.768 -19.591 -17.032 C -21.93 -20.299 -23.881 -23.588 -25.438 -26.9 C -22.126 -26.023 -18.812 -24.732 -15.497 -23.026 C -12.185 -21.322 -9.162 -19.495 -6.433 -17.544 C -3.705 -15.596 -1.439 -13.67 .365 -11.77 C 2.168 -9.868 3.313 -8.237 3.801 -6.871 C 3.897 -6.483 4.021 -5.898 4.167 -5.117 C 4.312 -4.338 4.288 -3.56 4.094 -2.778 C 3.897 -1.999 3.483 -1.341 2.851 -.804 C 2.216 -.27 1.266 0 0 0 M 13.012 -4.094 C 12.913 -6.823 11.865 -9.846 9.868 -13.158 C 7.87 -16.473 5.066 -19.641 1.462 -22.661 C -2.145 -25.684 -6.483 -28.34 -11.55 -30.629 C -16.619 -32.92 -22.223 -34.356 -28.362 -34.941 C -28.559 -35.818 -28.705 -36.648 -28.801 -37.427 C -28.899 -38.208 -28.947 -38.987 -28.947 -39.767 C -28.947 -43.081 -28.486 -45.884 -27.559 -48.173 C -26.634 -50.464 -24.611 -51.707 -21.491 -51.9 C -19.934 -51.9 -18.179 -51.561 -16.229 -50.877 C -14.279 -50.196 -11.94 -49.173 -9.211 -47.808 C -6.286 -46.249 -3.582 -44.371 -1.097 -42.179 C 1.389 -39.985 3.801 -37.623 6.141 -35.088 C 7.603 -33.53 8.795 -32.164 9.723 -30.994 C 10.647 -29.824 11.524 -28.705 12.354 -27.632 C 13.181 -26.561 14.01 -25.416 14.839 -24.196 C 15.666 -22.979 16.715 -21.491 17.982 -19.737 C 18.663 -19.152 19.395 -18.837 20.176 -18.787 C 20.954 -18.738 21.587 -18.885 22.076 -19.226 C 22.562 -19.568 22.903 -20.103 23.1 -20.833 C 23.294 -21.564 23.246 -22.368 22.953 -23.246 C 20.614 -27.047 17.933 -31.238 14.912 -35.818 C 11.89 -40.401 8.454 -44.689 4.605 -48.685 C .754 -52.682 -3.534 -56.093 -8.26 -58.918 C -12.989 -61.746 -18.179 -63.353 -23.83 -63.743 C -27.828 -64.035 -31.337 -63.645 -34.356 -62.573 C -37.379 -61.502 -39.912 -60.04 -41.959 -58.188 C -44.006 -56.337 -45.566 -54.192 -46.638 -51.755 C -47.709 -49.319 -48.294 -46.784 -48.392 -44.152 C -48.685 -39.378 -48.074 -34.699 -46.564 -30.117 C -45.055 -25.537 -42.982 -21.199 -40.351 -17.105 C -37.72 -13.012 -34.674 -9.211 -31.214 -5.702 C -27.755 -2.193 -24.221 .827 -20.614 3.362 C -18.274 5.018 -15.351 6.407 -11.842 7.529 C -8.333 8.648 -4.875 9.209 -1.462 9.209 C 2.728 9.209 6.214 8.041 8.991 5.702 C 11.769 3.362 13.107 .096 13.012 -4.094 " fill="#ffffff"/>
<path transform="matrix(1,0,0,-1,676.4401,585.5285)" d="M 0 0 C -.781 -.488 -1.731 -1.146 -2.851 -1.974 C -3.972 -2.803 -4.922 -3.34 -5.701 -3.582 C -6.482 -3.826 -6.896 -3.559 -6.944 -2.777 C -6.994 -1.999 -6.238 -.146 -4.678 2.778 C -3.412 5.117 -1.731 7.406 .366 9.649 C 2.461 11.89 4.921 13.546 7.749 14.62 C 9.99 15.498 12.428 15.984 15.059 16.082 C 17.69 16.178 19.932 15.644 21.784 14.474 C 23.831 13.108 24.658 12.011 24.27 11.185 C 23.879 10.355 22.515 9.697 20.176 9.211 C 16.471 8.528 13.012 7.358 9.796 5.702 C 6.579 4.044 3.313 2.143 0 0 M -14.912 -64.327 C -13.256 -64.425 -11.38 -63.84 -9.283 -62.573 C -7.188 -61.307 -5.068 -59.649 -2.924 -57.602 C -3.314 -55.946 -3.485 -54.044 -3.436 -51.9 C -3.388 -49.757 -3.021 -47.418 -2.339 -44.882 C -2.145 -44.005 -1.706 -42.641 -1.022 -40.789 C -.342 -38.938 .561 -37.061 1.682 -35.16 C 2.801 -33.259 4.094 -31.555 5.556 -30.043 C 7.018 -28.533 8.576 -27.631 10.234 -27.338 C 11.696 -27.144 12.815 -27.338 13.597 -27.923 C 13.597 -27.535 13.62 -27.169 13.67 -26.827 C 13.718 -26.487 13.743 -26.121 13.743 -25.73 C 13.743 -23.683 13.378 -22.148 12.646 -21.125 C 11.916 -20.102 10.575 -19.542 8.626 -19.444 C 6.872 -19.444 4.435 -20.419 1.316 -22.368 C -1.804 -24.319 -4.874 -27.023 -7.895 -30.482 C -10.916 -33.943 -13.522 -38.011 -15.716 -42.689 C -17.909 -47.368 -19.006 -52.389 -19.006 -57.748 C -19.006 -59.114 -18.738 -60.526 -18.201 -61.988 C -17.667 -63.45 -16.57 -64.231 -14.912 -64.327 M 36.55 -45.906 C 35.381 -47.564 33.747 -49.561 31.652 -51.9 C 29.556 -54.239 27.34 -56.555 25 -58.844 C 22.661 -61.135 20.322 -63.109 17.983 -64.765 C 15.644 -66.424 13.547 -67.397 11.696 -67.689 C 9.161 -68.08 6.676 -67.835 4.24 -66.958 C .146 -71.052 -4.338 -74.341 -9.21 -76.827 C -14.085 -79.312 -19.151 -80.457 -24.415 -80.262 C -28.606 -80.068 -32.067 -78.266 -34.795 -74.853 C -37.522 -71.443 -38.889 -66.764 -38.889 -60.818 C -38.889 -54.97 -37.693 -48.903 -35.307 -42.617 C -32.919 -36.33 -29.63 -30.628 -25.438 -25.511 C -21.249 -20.394 -16.374 -16.205 -10.818 -12.938 C -5.263 -9.674 .633 -8.091 6.872 -8.187 C 11.258 -8.285 14.767 -9.648 17.398 -12.28 C 20.029 -14.912 21.588 -18.567 22.076 -23.245 C 22.563 -28.8 21.857 -34.576 19.957 -40.57 C 18.056 -46.564 15.352 -52.243 11.843 -57.602 C 13.597 -57.408 15.374 -56.75 17.179 -55.628 C 18.981 -54.508 20.735 -53.167 22.442 -51.608 C 24.146 -50.049 25.731 -48.417 27.193 -46.709 C 28.655 -45.005 29.921 -43.47 30.995 -42.105 C 31.579 -41.326 32.091 -40.62 32.529 -39.985 C 32.969 -39.352 33.382 -38.792 33.772 -38.303 C 34.453 -37.426 35.209 -36.94 36.038 -36.841 C 36.865 -36.746 37.597 -36.867 38.231 -37.207 C 38.864 -37.549 39.328 -38.109 39.62 -38.888 C 39.913 -39.669 39.814 -40.497 39.328 -41.374 Z " fill="#ffffff"/>
<path transform="matrix(1,0,0,-1,709.7722,659.9431)" d="M 0 0 C -.976 -1.853 -1.682 -3.217 -2.12 -4.094 C -2.559 -4.971 -3.022 -5.556 -3.509 -5.848 C -3.998 -6.141 -4.655 -6.262 -5.482 -6.214 C -6.31 -6.163 -7.552 -6.141 -9.211 -6.141 C -10.866 -6.141 -12.208 -6.188 -13.23 -6.286 C -14.254 -6.383 -15.446 -6.383 -16.812 -6.286 C -17.786 -6.286 -18.421 -6.042 -18.714 -5.556 C -19.006 -5.069 -19.102 -4.484 -19.006 -3.801 C -18.907 -3.12 -18.736 -2.485 -18.494 -1.9 C -18.25 -1.315 -18.078 -.928 -17.982 -.731 C -15.059 6.09 -10.818 14.789 -5.263 25.365 C .292 35.939 7.942 48.78 17.69 63.888 C 18.177 64.766 19.347 65.278 21.199 65.423 C 23.049 65.57 24.95 65.447 26.9 65.058 C 28.85 64.667 30.506 64.057 31.871 63.231 C 33.235 62.401 33.722 61.5 33.333 60.526 C 33.137 59.843 32.333 58.356 30.921 56.067 C 29.507 53.776 27.826 51.071 25.877 47.953 L 27.924 50.146 C 28.897 51.119 29.971 52.46 31.141 54.167 C 32.31 55.871 33.674 57.529 35.234 59.137 C 36.792 60.746 38.498 62.182 40.351 63.45 C 42.201 64.715 44.248 65.447 46.491 65.643 C 50.877 66.031 54.263 65.179 56.652 63.084 C 59.039 60.988 60.136 58.43 59.941 55.409 C 59.745 53.655 59.356 51.876 58.772 50.073 C 58.188 48.269 57.479 46.466 56.652 44.664 C 55.823 42.859 54.945 41.13 54.021 39.474 C 53.093 37.815 52.193 36.306 51.315 34.941 L 47.661 28.655 C 46.394 26.412 45.249 24.27 44.226 22.223 C 43.202 20.176 42.445 18.396 41.959 16.886 C 41.471 15.374 41.301 14.182 41.447 13.304 C 41.594 12.427 42.201 11.988 43.275 11.988 C 45.029 12.084 47.076 13.181 49.415 15.277 C 51.755 17.373 54.043 19.76 56.287 22.441 C 58.527 25.121 60.574 27.777 62.427 30.409 C 64.277 33.041 65.691 34.941 66.667 36.111 C 67.348 36.988 68.078 37.5 68.859 37.646 C 69.639 37.792 70.345 37.694 70.979 37.354 C 71.612 37.011 72.076 36.451 72.368 35.673 C 72.661 34.892 72.61 34.014 72.223 33.041 C 69.492 28.459 66.495 23.999 63.231 19.664 C 59.965 15.326 56.627 11.306 53.217 7.603 C 52.241 6.627 50.974 5.312 49.415 3.655 C 47.855 1.996 46.126 .413 44.226 -1.097 C 42.324 -2.608 40.253 -3.899 38.012 -4.971 C 35.769 -6.042 33.527 -6.528 31.287 -6.433 C 29.24 -6.335 27.533 -5.994 26.17 -5.409 C 24.804 -4.824 23.732 -4.094 22.953 -3.217 C 22.172 -2.339 21.587 -1.341 21.199 -.22 C 20.809 .9 20.563 2.047 20.468 3.217 C 20.37 4.58 20.563 6.262 21.053 8.261 C 21.539 10.257 22.223 12.329 23.1 14.474 C 23.977 16.616 24.927 18.714 25.95 20.761 C 26.974 22.807 27.972 24.609 28.947 26.17 C 30.506 28.995 32.285 32.139 34.284 35.6 C 36.28 39.058 38.012 42.3 39.474 45.321 C 40.936 48.342 41.959 50.853 42.544 52.851 C 43.129 54.848 42.786 55.848 41.521 55.848 C 40.154 55.848 38.546 55.19 36.696 53.874 C 34.844 52.559 32.895 50.853 30.848 48.758 C 28.801 46.66 26.755 44.347 24.708 41.813 C 22.661 39.277 20.761 36.792 19.006 34.356 C 17.252 31.919 15.691 29.701 14.327 27.705 C 12.962 25.706 11.988 24.219 11.403 23.246 C 10.526 21.587 9.599 19.76 8.626 17.764 C 7.65 15.765 6.652 13.718 5.629 11.623 C 4.605 9.525 3.604 7.479 2.632 5.482 C 1.656 3.483 .779 1.656 0 0 " fill="#ffffff"/>
<path transform="matrix(1,0,0,-1,553.5362,696.5941)" d="M 0 0 C -87.369 31.772 -138.553 20.166 -197.816 6.729 C -226.322 .266 -255.798 -6.417 -292.27 -8.781 C -331.481 -11.326 -360.57 -4.495 -376.384 10.966 C -390.149 24.423 -389.655 40.058 -389.628 40.716 L -389.633 40.618 C -389.633 40.618 -391.323 51.279 -400.818 51.427 C -410.312 51.575 -410.594 41.908 -410.594 41.908 C -410.656 40.889 -411.896 16.709 -391.54 -3.581 C -373.716 -21.347 -345.667 -30.312 -308.015 -30.311 C -302.519 -30.311 -296.815 -30.12 -290.912 -29.737 C -252.777 -27.266 -222.477 -20.396 -193.173 -13.751 C -137.138 -1.047 -88.743 9.924 -7.176 -19.735 C -1.726 -21.717 4.297 -18.906 6.28 -13.456 C 8.262 -8.006 5.45 -1.981 0 0 " fill="#1f7f35"/>
<path transform="matrix(1,0,0,-1,153.4231,655.3312)" d="M 0 0 C .932 -17.789 11.788 -34.149 26.935 -43.136 C 37.983 -50.01 51.187 -53.527 64.021 -55.373 C 77.169 -57.104 90.447 -57.223 103.703 -56.343 C 130.455 -54.64 156.879 -50.154 183.126 -44.441 C 218.358 -36.84 254.201 -27.36 290.649 -27.669 C 327.194 -27.545 363.221 -36.785 396.525 -51.131 C 370.612 -43.505 344.349 -37.429 317.449 -35.811 C 290.798 -33.917 264.046 -37.006 237.945 -42.439 C 202.604 -49.848 167.481 -59.532 131.416 -63.169 C 104.15 -65.968 75.966 -67.112 49.356 -59.207 C 22.26 -51.4 -1.561 -30.028 0 0 " fill="#ffffff"/>
<path transform="matrix(1,0,0,-1,370.2307,740.73208)" d="M 0 0 C 0 3.176 1.299 6.096 3.899 8.76 C 6.498 11.424 9.626 12.927 13.287 13.269 C 10.687 15.42 9.388 18.119 9.388 21.363 C 9.388 24.178 10.405 26.658 12.44 28.803 C 14.475 30.947 16.98 32.021 19.956 32.021 C 21.836 32.021 23.281 31.538 24.291 30.572 C 25.299 29.606 25.804 28.228 25.804 26.435 C 25.804 24.591 25.342 22.84 24.418 21.184 C 23.495 19.527 22.589 18.699 21.7 18.699 C 20.947 18.699 20.314 19.245 19.802 20.338 C 22.674 22.831 24.111 25.205 24.111 27.46 C 24.111 29.68 22.896 30.79 20.469 30.79 C 18.177 30.79 16.381 29.808 15.082 27.844 C 13.782 25.88 13.133 23.429 13.133 20.492 C 13.133 17.042 14.124 14.464 16.108 12.757 C 12.825 12.21 10.114 10.638 7.977 8.043 C 5.839 5.447 4.771 2.715 4.771 -.153 C 4.771 -2.102 5.31 -3.826 6.387 -5.328 C 7.464 -6.83 9.114 -7.582 11.337 -7.582 C 13.97 -7.582 16.604 -6.506 19.237 -4.355 C 21.871 -2.204 23.888 .393 25.291 3.433 L 26.009 2.92 C 24.093 -.77 21.768 -3.733 19.032 -5.971 C 16.295 -8.207 13.287 -9.326 10.003 -9.326 C 6.994 -9.326 4.574 -8.43 2.745 -6.637 C .915 -4.843 0 -2.631 0 0 " fill="#1f7f35"/>
<path transform="matrix(1,0,0,-1,394.1877,741.902)" d="M 0 0 C 0 3.386 1.206 6.507 3.617 9.362 C 6.027 12.218 8.567 13.646 11.234 13.646 C 12.534 13.646 13.466 13.278 14.03 12.543 C 14.595 11.807 14.876 10.909 14.876 9.85 C 14.876 8.823 14.646 7.942 14.184 7.208 C 13.723 6.472 13.098 6.104 12.312 6.104 C 11.73 6.104 11.234 6.361 10.824 6.874 C 11.337 7.113 11.781 7.651 12.158 8.49 C 12.534 9.328 12.722 10.14 12.722 10.927 C 12.722 11.781 12.345 12.209 11.594 12.209 C 9.815 12.209 7.968 10.756 6.053 7.849 C 4.138 4.941 3.18 2.206 3.18 -.359 C 3.18 -3.198 4.428 -4.617 6.925 -4.617 C 9.011 -4.617 11.072 -3.762 13.107 -2.052 C 15.141 -.342 16.706 1.898 17.801 4.668 L 18.468 4.155 C 17.305 1.059 15.518 -1.495 13.107 -3.503 C 10.696 -5.511 8.241 -6.515 5.746 -6.515 C 4.035 -6.515 2.65 -5.954 1.59 -4.836 C .53 -3.715 0 -2.104 0 0 " fill="#1f7f35"/>
<path transform="matrix(1,0,0,-1,420.3503,734.1559)" d="M 0 0 C 0 -2.326 .581 -4.173 1.744 -5.54 C 3.728 -2.599 4.72 .034 4.72 2.36 C 4.72 4.275 4.207 5.232 3.181 5.232 C 2.428 5.232 1.71 4.711 1.026 3.668 C .341 2.625 0 1.402 0 0 M -9.85 -8.42 C -9.85 -6.23 -9.226 -4.048 -7.977 -1.875 C -6.729 .299 -5.386 1.386 -3.95 1.386 C -3.642 1.386 -3.283 1.3 -2.873 1.129 C -3.523 .581 -4.292 -.778 -5.181 -2.949 C -6.071 -5.122 -6.515 -6.822 -6.515 -8.054 C -6.515 -10.072 -5.899 -11.08 -4.668 -11.08 C -3.164 -11.08 -1.333 -9.679 .821 -6.874 C -.137 -6.088 -.881 -5.062 -1.411 -3.796 C -1.941 -2.531 -2.206 -1.214 -2.206 .154 C -2.206 1.946 -1.753 3.479 -.846 4.756 C .06 6.031 1.283 6.669 2.822 6.669 C 5.181 6.669 6.361 5.336 6.361 2.668 C 6.361 0 5.215 -3.044 2.924 -6.464 C 3.54 -6.806 4.189 -6.977 4.874 -6.977 C 5.865 -6.977 6.891 -6.678 7.952 -6.079 C 9.011 -5.48 9.815 -4.549 10.363 -3.283 L 10.978 -3.796 C 10.328 -5.301 9.405 -6.412 8.208 -7.13 C 7.01 -7.849 5.779 -8.208 4.515 -8.208 C 3.591 -8.208 2.77 -8.037 2.052 -7.694 C -.685 -11.285 -3.301 -13.081 -5.797 -13.081 C -7.2 -13.081 -8.226 -12.653 -8.875 -11.801 C -9.524 -10.947 -9.85 -9.82 -9.85 -8.42 " fill="#1f7f35"/>
<path transform="matrix(1,0,0,-1,434.3547,734.652)" d="M 0 0 C 2.804 2.843 5.437 6.585 7.9 11.227 C 10.362 15.868 11.593 19.131 11.593 21.015 C 11.593 21.562 11.473 21.837 11.234 21.837 C 10.755 21.837 9.806 20.731 8.387 18.522 C 6.968 16.313 5.437 13.444 3.796 9.916 C 2.154 6.388 .889 3.083 0 0 M -4.463 -7.244 C -4.463 -4.916 -3.796 -1.808 -2.462 2.079 C -1.129 5.966 .418 9.647 2.18 13.124 C 3.941 16.6 5.72 19.613 7.515 22.165 C 9.311 24.716 10.636 25.992 11.491 25.992 C 11.969 25.992 12.371 25.564 12.696 24.71 C 13.021 23.854 13.184 23.017 13.184 22.196 C 13.184 19.627 11.781 15.714 8.977 10.456 C 6.172 5.197 3.026 1.131 -.462 -1.746 C -.907 -3.733 -1.129 -5.463 -1.129 -6.936 C -1.129 -9.573 -.377 -10.892 1.128 -10.892 C 2.393 -10.892 3.685 -10.087 5.001 -8.478 C 6.317 -6.868 7.489 -4.933 8.516 -2.671 L 9.285 -3.083 C 6.343 -9.349 3.146 -12.482 -.308 -12.482 L -.359 -12.482 C -3.096 -12.482 -4.463 -10.736 -4.463 -7.244 " fill="#1f7f35"/>
<path transform="matrix(1,0,0,-1,458.9772,723.0241)" d="M 0 0 C 0 .719 .658 1.933 1.977 3.643 C 3.291 5.353 4.412 6.208 5.336 6.208 C 5.984 6.208 6.361 5.677 6.465 4.617 C 3.934 2.429 2.018 .444 .719 -1.333 C .24 -1.095 0 -.649 0 0 M -7.797 -11.132 C -7.797 -13.458 -7.215 -15.305 -6.053 -16.672 C -4.07 -13.73 -3.078 -11.098 -3.078 -8.771 C -3.078 -6.856 -3.59 -5.899 -4.617 -5.899 C -5.369 -5.899 -6.088 -6.421 -6.771 -7.464 C -7.455 -8.507 -7.797 -9.729 -7.797 -11.132 M -17.646 -19.552 C -17.646 -17.362 -17.022 -15.18 -15.774 -13.007 C -14.526 -10.833 -13.183 -9.746 -11.747 -9.746 C -11.439 -9.746 -11.08 -9.832 -10.669 -10.003 C -11.32 -10.551 -12.089 -11.91 -12.978 -14.081 C -13.868 -16.254 -14.312 -17.954 -14.312 -19.186 C -14.312 -21.204 -13.696 -22.212 -12.465 -22.212 C -10.96 -22.212 -9.13 -20.811 -6.977 -18.006 C -7.934 -17.22 -8.678 -16.193 -9.208 -14.928 C -9.738 -13.663 -10.002 -12.346 -10.002 -10.978 C -10.002 -9.186 -9.55 -7.652 -8.643 -6.376 C -7.738 -5.101 -6.514 -4.463 -4.975 -4.463 C -2.615 -4.463 -1.436 -5.796 -1.436 -8.464 C -1.436 -11.132 -2.582 -14.176 -4.873 -17.596 C -4.258 -17.937 -3.607 -18.108 -2.924 -18.108 C -1.932 -18.108 -.906 -17.81 .154 -17.211 C 1.215 -16.612 2.018 -15.681 2.566 -14.415 L 3.182 -14.928 C 2.531 -16.433 1.607 -17.544 .41 -18.262 C -.787 -18.98 -2.018 -19.34 -3.283 -19.34 C -4.205 -19.34 -5.027 -19.169 -5.744 -18.826 C -8.481 -22.417 -11.098 -24.213 -13.594 -24.213 C -14.997 -24.213 -16.022 -23.785 -16.671 -22.933 C -17.321 -22.079 -17.646 -20.952 -17.646 -19.552 " fill="#1f7f35"/>
<path transform="matrix(1,0,0,-1,461.1315,756.5661)" d="M 0 0 C 0 -.549 .108 -.987 .325 -1.313 C .543 -1.64 .835 -1.803 1.202 -1.803 C 1.988 -1.803 2.972 -1.056 4.152 .437 C 5.332 1.933 6.554 4.19 7.819 7.212 C 5.323 5.941 3.396 4.757 2.037 3.657 C .679 2.56 0 1.34 0 0 M -1.591 -.464 C -1.591 .224 -1.462 .876 -1.206 1.494 C -.949 2.112 -.513 2.714 .103 3.297 C .718 3.881 1.257 4.379 1.719 4.791 C 2.18 5.203 2.924 5.684 3.95 6.233 L 6.104 7.418 C 6.515 7.658 7.284 8.054 8.413 8.603 C 9.37 11.026 10.242 13.803 11.029 16.934 C 7.985 12.65 5.198 10.509 2.667 10.509 C 1.47 10.509 .529 10.947 -.154 11.823 C -.838 12.699 -1.18 13.864 -1.18 15.32 C -1.18 17.604 -.437 19.812 1.052 21.941 C 2.539 24.07 4.326 25.742 6.412 26.954 C 8.498 28.166 10.481 28.771 12.363 28.771 C 14.21 28.771 15.133 28.225 15.133 27.13 C 15.133 26.577 14.928 26.23 14.518 26.093 C 14.141 26.613 13.457 26.873 12.466 26.873 C 9.935 26.873 7.583 25.503 5.412 22.762 C 3.239 20.021 2.154 17.453 2.154 15.06 C 2.154 13.359 2.752 12.51 3.95 12.51 C 4.873 12.51 6.027 13.151 7.413 14.435 C 8.798 15.719 10.174 17.367 11.542 19.379 L 12.158 22.138 C 12.534 23.907 13.406 24.792 14.774 24.792 C 15.082 24.792 15.441 24.74 15.852 24.636 C 15.852 23.714 15.475 21.863 14.723 19.082 C 13.97 16.301 13.03 13.478 11.901 10.611 C 13.679 11.456 15.329 12.629 16.852 14.132 C 18.373 15.634 19.511 17.314 20.263 19.172 L 20.93 18.65 C 20.212 16.588 18.921 14.712 17.057 13.021 C 15.192 11.332 13.286 10.031 11.337 9.118 C 7.882 .777 4.555 -3.394 1.353 -3.394 C .541 -3.394 -.152 -3.148 -.728 -2.66 C -1.303 -2.172 -1.591 -1.439 -1.591 -.464 " fill="#1f7f35"/>
<path transform="matrix(1,0,0,-1,488.2682,721.7409)" d="M 0 0 C 0 .684 .41 1.299 1.231 1.847 C 2.052 2.394 2.89 2.667 3.745 2.667 C 4.874 2.667 5.437 2.154 5.437 1.128 C 5.437 .443 5.087 -.197 4.386 -.795 C 3.685 -1.395 2.924 -1.693 2.104 -1.693 C .7 -1.693 0 -1.129 0 0 M -8.003 -20.879 C -8.003 -19.545 -7.644 -17.75 -6.926 -15.493 C -6.207 -13.235 -5.25 -11.167 -4.053 -9.285 C -2.855 -7.405 -1.71 -6.464 -.615 -6.464 C .137 -6.464 .513 -6.842 .513 -7.596 C .513 -8.008 .068 -8.951 -.82 -10.426 C -1.71 -11.901 -2.6 -13.574 -3.488 -15.443 C -4.378 -17.312 -4.822 -18.95 -4.822 -20.356 C -4.822 -21.558 -4.626 -22.372 -4.232 -22.801 C -3.839 -23.23 -3.198 -23.444 -2.309 -23.444 C .359 -23.444 2.992 -20.822 5.592 -15.577 L 6.054 -16.091 C 5.096 -18.953 3.685 -21.185 1.821 -22.786 C -.043 -24.388 -2.001 -25.188 -4.053 -25.188 C -5.318 -25.188 -6.293 -24.786 -6.977 -23.982 C -7.661 -23.18 -8.003 -22.145 -8.003 -20.879 " fill="#1f7f35"/>
<path transform="matrix(1,0,0,-1,492.6286,741.902)" d="M 0 0 C 0 3.386 1.206 6.507 3.617 9.362 C 6.028 12.218 8.567 13.646 11.235 13.646 C 12.534 13.646 13.467 13.278 14.03 12.543 C 14.595 11.807 14.877 10.909 14.877 9.85 C 14.877 8.823 14.646 7.942 14.185 7.208 C 13.723 6.472 13.099 6.104 12.313 6.104 C 11.73 6.104 11.235 6.361 10.824 6.874 C 11.338 7.113 11.781 7.651 12.158 8.49 C 12.534 9.328 12.723 10.14 12.723 10.927 C 12.723 11.781 12.346 12.209 11.594 12.209 C 9.815 12.209 7.969 10.756 6.054 7.849 C 4.138 4.941 3.181 2.206 3.181 -.359 C 3.181 -3.198 4.429 -4.617 6.926 -4.617 C 9.012 -4.617 11.072 -3.762 13.107 -2.052 C 15.142 -.342 16.706 1.898 17.801 4.668 L 18.468 4.155 C 17.305 1.059 15.519 -1.495 13.107 -3.503 C 10.696 -5.511 8.242 -6.515 5.746 -6.515 C 4.035 -6.515 2.65 -5.954 1.591 -4.836 C .53 -3.715 0 -2.104 0 0 " fill="#1f7f35"/>
<path transform="matrix(1,0,0,-1,518.7917,734.1559)" d="M 0 0 C 0 -2.326 .581 -4.173 1.744 -5.54 C 3.727 -2.599 4.719 .034 4.719 2.36 C 4.719 4.275 4.206 5.232 3.18 5.232 C 2.428 5.232 1.709 4.711 1.025 3.668 C .341 2.625 0 1.402 0 0 M -9.85 -8.42 C -9.85 -6.23 -9.227 -4.048 -7.978 -1.875 C -6.729 .299 -5.387 1.386 -3.95 1.386 C -3.643 1.386 -3.283 1.3 -2.873 1.129 C -3.523 .581 -4.293 -.778 -5.182 -2.949 C -6.071 -5.122 -6.516 -6.822 -6.516 -8.054 C -6.516 -10.072 -5.899 -11.08 -4.669 -11.08 C -3.164 -11.08 -1.334 -9.679 .82 -6.874 C -.138 -6.088 -.881 -5.062 -1.411 -3.796 C -1.941 -2.531 -2.206 -1.214 -2.206 .154 C -2.206 1.946 -1.753 3.479 -.847 4.756 C .059 6.031 1.282 6.669 2.821 6.669 C 5.181 6.669 6.36 5.336 6.36 2.668 C 6.36 0 5.215 -3.044 2.924 -6.464 C 3.539 -6.806 4.188 -6.977 4.873 -6.977 C 5.864 -6.977 6.891 -6.678 7.951 -6.079 C 9.011 -5.48 9.814 -4.549 10.362 -3.283 L 10.978 -3.796 C 10.327 -5.301 9.404 -6.412 8.207 -7.13 C 7.01 -7.849 5.778 -8.208 4.514 -8.208 C 3.591 -8.208 2.77 -8.037 2.052 -7.694 C -.685 -11.285 -3.301 -13.081 -5.797 -13.081 C -7.2 -13.081 -8.226 -12.653 -8.875 -11.801 C -9.524 -10.947 -9.85 -9.82 -9.85 -8.42 " fill="#1f7f35"/>
</g>
</g>
</g>
</svg>
